FILE "Track 01.iso" BINARY
  TRACK 01 MODE1/2048
  INDEX 01 00:00:00
  POSTGAP 00:02:00
FILE "Track 02.ogg" WAVE
  TRACK 02 AUDIO
  INDEX 01 00:00:00
FILE "Track 03.ogg" WAVE
  TRACK 03 AUDIO
  INDEX 01 00:00:00
FILE "Track 04.ogg" WAVE
  TRACK 04 AUDIO
  INDEX 01 00:00:00
FILE "Track 05.ogg" WAVE
  TRACK 05 AUDIO
  INDEX 01 00:00:00
FILE "Track 06.ogg" WAVE
  TRACK 06 AUDIO
  INDEX 01 00:00:00
FILE "Track 07.ogg" WAVE
  TRACK 07 AUDIO
  INDEX 01 00:00:00
FILE "Track 08.ogg" WAVE
  TRACK 08 AUDIO
  INDEX 01 00:00:00
FILE "Track 09.ogg" WAVE
  TRACK 09 AUDIO
  INDEX 01 00:00:00
FILE "Track 10.ogg" WAVE
  TRACK 10 AUDIO
  INDEX 01 00:00:00
FILE "Track 11.ogg" WAVE
  TRACK 11 AUDIO
  INDEX 01 00:00:00
FILE "Track 12.ogg" WAVE
  TRACK 12 AUDIO
  INDEX 01 00:00:00
FILE "Track 13.ogg" WAVE
  TRACK 13 AUDIO
  INDEX 01 00:00:00
FILE "Track 14.ogg" WAVE
  TRACK 14 AUDIO
  INDEX 01 00:00:00
FILE "Track 15.ogg" WAVE
  TRACK 15 AUDIO
  INDEX 01 00:00:00
FILE "Track 16.ogg" WAVE
  TRACK 16 AUDIO
  INDEX 01 00:00:00
FILE "Track 17.ogg" WAVE
  TRACK 17 AUDIO
  INDEX 01 00:00:00
FILE "Track 18.ogg" WAVE
  TRACK 18 AUDIO
  INDEX 01 00:00:00
FILE "Track 19.ogg" WAVE
  TRACK 19 AUDIO
  INDEX 01 00:00:00
FILE "Track 20.ogg" WAVE
  TRACK 20 AUDIO
  INDEX 01 00:00:00
FILE "Track 21.ogg" WAVE
  TRACK 21 AUDIO
  INDEX 01 00:00:00
FILE "Track 22.ogg" WAVE
  TRACK 22 AUDIO
  INDEX 01 00:00:00
FILE "Track 23.ogg" WAVE
  TRACK 23 AUDIO
  INDEX 01 00:00:00
FILE "Track 24.ogg" WAVE
  TRACK 24 AUDIO
  INDEX 01 00:00:00
FILE "Track 25.ogg" WAVE
  TRACK 25 AUDIO
  INDEX 01 00:00:00
FILE "Track 26.ogg" WAVE
  TRACK 26 AUDIO
  INDEX 01 00:00:00
FILE "Track 27.ogg" WAVE
  TRACK 27 AUDIO
  INDEX 01 00:00:00
FILE "Track 28.ogg" WAVE
  TRACK 28 AUDIO
  INDEX 01 00:00:00
FILE "Track 29.ogg" WAVE
  TRACK 29 AUDIO
  INDEX 01 00:00:00
FILE "Track 30.ogg" WAVE
  TRACK 30 AUDIO
  INDEX 01 00:00:00
FILE "Track 31.ogg" WAVE
  TRACK 31 AUDIO
  INDEX 01 00:00:00
FILE "Track 32.ogg" WAVE
  TRACK 32 AUDIO
  INDEX 01 00:00:00
FILE "Track 33.ogg" WAVE
  TRACK 33 AUDIO
  INDEX 01 00:00:00
FILE "Track 34.ogg" WAVE
  TRACK 34 AUDIO
  INDEX 01 00:00:00
FILE "Track 35.ogg" WAVE
  TRACK 35 AUDIO
  INDEX 01 00:00:00
FILE "Track 36.ogg" WAVE
  TRACK 36 AUDIO
  INDEX 01 00:00:00
FILE "Track 37.ogg" WAVE
  TRACK 37 AUDIO
  INDEX 01 00:00:00
FILE "Track 38.ogg" WAVE
  TRACK 38 AUDIO
  INDEX 01 00:00:00
FILE "Track 39.ogg" WAVE
  TRACK 39 AUDIO
  INDEX 01 00:00:00
FILE "Track 40.ogg" WAVE
  TRACK 40 AUDIO
  INDEX 01 00:00:00
FILE "Track 41.ogg" WAVE
  TRACK 41 AUDIO
  INDEX 01 00:00:00
FILE "Track 42.ogg" WAVE
  TRACK 42 AUDIO
  INDEX 01 00:00:00
FILE "Track 43.ogg" WAVE
  TRACK 43 AUDIO
  INDEX 01 00:00:00
FILE "Track 44.ogg" WAVE
  TRACK 44 AUDIO
  INDEX 01 00:00:00
FILE "Track 45.ogg" WAVE
  TRACK 45 AUDIO
  INDEX 01 00:00:00
FILE "Track 46.ogg" WAVE
  TRACK 46 AUDIO
  INDEX 01 00:00:00
FILE "Track 47.ogg" WAVE
  TRACK 47 AUDIO
  INDEX 01 00:00:00
FILE "Track 48.ogg" WAVE
  TRACK 48 AUDIO
  INDEX 01 00:00:00
FILE "Track 49.ogg" WAVE
  TRACK 49 AUDIO
  INDEX 01 00:00:00
FILE "Track 50.ogg" WAVE
  TRACK 50 AUDIO
  INDEX 01 00:00:00
FILE "Track 51.ogg" WAVE
  TRACK 51 AUDIO
  INDEX 01 00:00:00
FILE "Track 52.ogg" WAVE
  TRACK 52 AUDIO
  INDEX 01 00:00:00
